<?xml version="1.0" encoding="UTF-8"?>
<svg xmlns="http://www.w3.org/2000/svg" onmouseup="{ if(window.parent.document.onmouseup) window.parent.document.onmouseup(arguments[0]);}" viewBox="0 0 231.2 43.81"><defs><style>.cls-1{isolation:isolate;}.cls-2,.cls-4{fill:#972eab;}.cls-2,.cls-5{mix-blend-mode:overlay;}.cls-3{fill:#6c1d7f;mix-blend-mode:multiply;opacity:0.29;}.cls-5{fill:#fff;opacity:0.4;}.cls-6{mix-blend-mode:luminosity;opacity:0.41;}</style></defs><g class="cls-1"><g data-name="Layer 2" id="Layer_2"><g data-name="Layer 3" id="Layer_3"><path data-cppathid="10000" d="M39,5.63a83.07,83.07,0,0,0-25,3.74c-6,2-11.79,5.13-14,11.1,1.23-3.24,5.58-4.59,8.74-5.39a54.44,54.44,0,0,1,16.89-1.31c5.49.35,11.45,1.05,16.58,3" class="cls-2"/><path data-cppathid="10001" d="M39.84,5.17a89.92,89.92,0,0,0-25,3.63C8.79,10.67,3,13.63.71,19.16c1.25-3,5.62-4.27,8.77-5a59.13,59.13,0,0,1,16.89-1.34c5.48.29,11.44.89,16.55,2.64" class="cls-2"/><polygon data-cppathid="10002" points="46.24 15.64 36.54 15.03 35.69 5.11 45.38 5.72 46.24 15.64" class="cls-3"/><path data-cppathid="10003" d="M231.2,4.61V39.2c0,2.53-2.78,4.61-6.17,4.61H44.7c-3.4,0-6.16-2.08-6.16-4.61V4.61a3.63,3.63,0,0,1,.25-1.31C39.55,1.39,41.91,0,44.7,0H225c2.81,0,5.2,1.42,5.93,3.35A3.57,3.57,0,0,1,231.2,4.61Z" class="cls-4"/><path data-cppathid="10004" d="M227.43,2.77a19.47,19.47,0,0,0-2.54-.2H44.11a17.75,17.75,0,0,0-2.53.22l-2.79.51C39.55,1.39,41.91,0,44.7,0H225c2.81,0,5.2,1.42,5.93,3.35Z" class="cls-5"/><path data-cppathid="10005" d="M231.2,38.47v.73c0,2.53-2.78,4.61-6.17,4.61H44.7c-3.4,0-6.16-2.08-6.16-4.61v-.68l2.14.52a18.67,18.67,0,0,0,3.75.45H225.37a17.18,17.18,0,0,0,3.74-.48l2-.54Z" class="cls-6"/></g></g></g></svg>