<?xml version="1.0" encoding="UTF-8"?>
<svg xmlns="http://www.w3.org/2000/svg" onmouseup="{ if(window.parent.document.onmouseup) window.parent.document.onmouseup(arguments[0]);}" viewBox="0 0 231.2 43.81"><defs><style>.cls-1{isolation:isolate;}.cls-2,.cls-4{fill:#972eab;}.cls-2,.cls-5{mix-blend-mode:overlay;}.cls-3{fill:#6c1d7f;mix-blend-mode:multiply;opacity:0.29;}.cls-5{fill:#fff;opacity:0.4;}.cls-6{mix-blend-mode:luminosity;opacity:0.41;}</style></defs><g class="cls-1"><g data-name="Layer 2" id="Layer_2"><g data-name="Layer 3" id="Layer_3"><path data-cppathid="10000" d="M192.16,5.63a83.07,83.07,0,0,1,25,3.74c6,2,11.79,5.13,14,11.1-1.23-3.24-5.59-4.59-8.74-5.39a54.47,54.47,0,0,0-16.89-1.31c-5.49.35-11.45,1.05-16.59,3" class="cls-2"/><path data-cppathid="10001" d="M191.36,5.17a90,90,0,0,1,25,3.63c6,1.87,11.82,4.83,14.13,10.36-1.25-3-5.62-4.27-8.78-5a59.13,59.13,0,0,0-16.89-1.34c-5.48.29-11.43.89-16.54,2.64" class="cls-2"/><polygon data-cppathid="10002" points="184.96 15.64 194.65 15.03 195.51 5.11 185.82 5.72 184.96 15.64" class="cls-3"/><path data-cppathid="10003" d="M0,4.61V39.2c0,2.53,2.77,4.61,6.16,4.61H186.49c3.4,0,6.17-2.08,6.17-4.61V4.61a3.44,3.44,0,0,0-.26-1.31c-.76-1.91-3.12-3.3-5.91-3.3H6.16C3.36,0,1,1.42.24,3.35A3.57,3.57,0,0,0,0,4.61Z" class="cls-4"/><path data-cppathid="10004" d="M3.77,2.77a19.47,19.47,0,0,1,2.54-.2H187.09a17.75,17.75,0,0,1,2.53.22l2.78.51c-.76-1.91-3.12-3.3-5.91-3.3H6.16C3.36,0,1,1.42.24,3.35Z" class="cls-5"/><path data-cppathid="10005" d="M0,38.47v.73c0,2.53,2.77,4.61,6.16,4.61H186.49c3.4,0,6.17-2.08,6.17-4.61v-.68l-2.14.52a18.68,18.68,0,0,1-3.76.45H5.83A17.27,17.27,0,0,1,2.08,39l-2-.54Z" class="cls-6"/></g></g></g></svg>