<?xml version="1.0" encoding="UTF-8"?>
<svg xmlns="http://www.w3.org/2000/svg" onmouseup="{ if(window.parent.document.onmouseup) window.parent.document.onmouseup(arguments[0]);}" viewBox="0 0 92.24 108.41"><defs><style>.cls-1{isolation:isolate;}.cls-2{fill:#6e80e1;}.cls-3{fill:#221964;}.cls-4{fill:#5b51ce;}.cls-5{fill:#2b2b2b;mix-blend-mode:multiply;opacity:0.3;}.cls-6{fill:#8247d3;}.cls-7{fill:#4e44bf;}.cls-8{fill:#c013d3;}</style></defs><g class="cls-1"><g data-name="Layer 2" id="Layer_2"><g data-name="Layer 3" id="Layer_3"><path data-cppathid="10000" d="M10.47,6.32S38.9-7.08,76.3,5.14l-3.11.71S40,.92,10.47,6.32Z" class="cls-2"/><path data-cppathid="10001" d="M0,107.87S-.74,48.24,10.47,6.32c0,0,33-12.2,62.72-.47,0,0,13.56,53.78,12.45,101.85Z" class="cls-3"/><path data-cppathid="10002" d="M10.47,6.32l.16,1.34S36.8-.7,69.45,6.81l3.74-1S62.76.59,41.83.59,10.47,6.32,10.47,6.32Z" class="cls-4"/><path data-cppathid="10003" d="M10.8,6.79S.75,51.42,1.36,99.68c0,0,40,2.18,79.93,0,0,0-.93-47.94-11.93-92.89l3.74-.94s12.74,37.2,11.73,102.56l-84.8-2S-1.13,46.94,10.46,6.31Z" class="cls-5"/><polygon data-cppathid="10004" points="73.4 29.42 73.19 27.98 10.52 28.71 10.47 29.42 73.4 29.42" class="cls-6"/><path data-cppathid="10005" d="M73.19,5.85l3.11-.71S91.43,52.75,92.24,107.67l-6.6,0S84.07,47.9,73.19,5.85Z" class="cls-7"/><path data-cppathid="10006" d="M17.41,21.6a3.67,3.67,0,0,1-1.8-.4,3.33,3.33,0,0,1-.64-.45,3.8,3.8,0,0,1-.51-.56L16,18.77a3.27,3.27,0,0,0,.62.58,1.24,1.24,0,0,0,.69.2.89.89,0,0,0,.7-.29,1.32,1.32,0,0,0,.26-.88V13.06h2.32v5.33a4,4,0,0,1-.21,1.37,2.56,2.56,0,0,1-.62,1,2.91,2.91,0,0,1-1,.64A3.87,3.87,0,0,1,17.41,21.6Z" class="cls-8"/><path data-cppathid="10007" d="M25.71,21.62a5.42,5.42,0,0,1-1.62-.23,3,3,0,0,1-2-1.9,5,5,0,0,1-.27-1.71V13.06h2.37v4.67a1.88,1.88,0,0,0,.42,1.35,1.48,1.48,0,0,0,1.12.44,1.51,1.51,0,0,0,1.12-.42,1.79,1.79,0,0,0,.42-1.31V13.06h2.37v4.66a4.83,4.83,0,0,1-.28,1.75,3,3,0,0,1-2,1.92A5.42,5.42,0,0,1,25.71,21.62Z" class="cls-8"/><path data-cppathid="10008" d="M31,13.06h3.24a6,6,0,0,1,2,.31,4.25,4.25,0,0,1,1.49.85,3.7,3.7,0,0,1,.92,1.32A4.14,4.14,0,0,1,39,17.21v0a4.41,4.41,0,0,1-.32,1.68,3.83,3.83,0,0,1-.94,1.34,4.28,4.28,0,0,1-1.5.88,6.09,6.09,0,0,1-2,.32H31ZM34.3,19.4A2.5,2.5,0,0,0,36,18.84a2,2,0,0,0,.64-1.57v0A2,2,0,0,0,36,15.68a2.5,2.5,0,0,0-1.69-.56h-.95V19.4Z" class="cls-8"/><path data-cppathid="10009" d="M44.49,21.63a5.08,5.08,0,0,1-1.82-.32,4.36,4.36,0,0,1-1.45-.89,4.18,4.18,0,0,1-1-1.38,4.39,4.39,0,0,1-.35-1.76v0a4.42,4.42,0,0,1,.34-1.71,4.32,4.32,0,0,1,.94-1.39,4.21,4.21,0,0,1,1.43-.93,4.7,4.7,0,0,1,1.81-.34,5.07,5.07,0,0,1,1.92.33,4.9,4.9,0,0,1,1.48.9l-1.36,1.64a4,4,0,0,0-.93-.59,2.92,2.92,0,0,0-1.1-.2,2,2,0,0,0-.85.18,2.19,2.19,0,0,0-.68.49,2.36,2.36,0,0,0-.45.73,2.44,2.44,0,0,0-.17.9v0a2.6,2.6,0,0,0,.17.93,2.08,2.08,0,0,0,.47.74,2.44,2.44,0,0,0,.73.48,2.25,2.25,0,0,0,.92.17,2.46,2.46,0,0,0,1.35-.34v-1H44.27V16.55h3.86v3.78a5.94,5.94,0,0,1-1.58.93A5.6,5.6,0,0,1,44.49,21.63Z" class="cls-8"/><path data-cppathid="10010" d="M49.43,13.06h6.74v2H51.72v1.27h4v1.84h-4v1.33h4.51v2h-6.8Z" class="cls-8"/><path data-cppathid="10011" d="M62,15.17l-1.42.33-.44-1.8,2.46-.7h1.69v8.46H62Z" class="cls-8"/></g></g></g></svg>