<?xml version="1.0" encoding="UTF-8"?>
<svg xmlns="http://www.w3.org/2000/svg" onmouseup="{ if(window.parent.document.onmouseup) window.parent.document.onmouseup(arguments[0]);}" viewBox="0 0 92.24 108.41"><defs><style>.cls-1{isolation:isolate;}.cls-2{fill:#6e80e1;}.cls-3{fill:#221964;}.cls-4{fill:#5b51ce;}.cls-5{fill:#2b2b2b;mix-blend-mode:multiply;opacity:0.3;}.cls-6{fill:#8247d3;}.cls-7{fill:#4e44bf;}.cls-8{fill:#c013d3;}</style></defs><g class="cls-1"><g data-name="Layer 2" id="Layer_2"><g data-name="Layer 3" id="Layer_3"><path data-cppathid="10000" d="M81.77,6.32S53.34-7.08,15.94,5.14l3.1.71S52.24.92,81.77,6.32Z" class="cls-2"/><path data-cppathid="10001" d="M92.21,107.87S93,48.24,81.77,6.32c0,0-33-12.2-62.73-.47C19,5.85,5.49,59.63,6.6,107.7Z" class="cls-3"/><path data-cppathid="10002" d="M81.77,6.32,81.6,7.66S55.44-.7,22.79,6.81L19,5.85S29.48.59,50.41.59,81.77,6.32,81.77,6.32Z" class="cls-4"/><path data-cppathid="10003" d="M81.44,6.79s10,44.63,9.44,92.89c0,0-40,2.18-79.93,0,0,0,.93-47.94,11.93-92.89l-3.74-.94S6.39,43.05,7.41,108.41l84.8-2S93.37,46.94,81.78,6.31Z" class="cls-5"/><polygon data-cppathid="10004" points="18.84 29.42 19.04 27.98 81.72 28.71 81.77 29.42 18.84 29.42" class="cls-6"/><path data-cppathid="10005" d="M19,5.85l-3.1-.71S.81,52.75,0,107.67l6.6,0S8.17,47.9,19,5.85Z" class="cls-7"/><path data-cppathid="10006" d="M28.41,22.18a4.37,4.37,0,0,1-1-.11,3.31,3.31,0,0,1-.8-.3,3.41,3.41,0,0,1-.65-.45,3.29,3.29,0,0,1-.5-.56L27,19.35a2.68,2.68,0,0,0,.62.57,1.16,1.16,0,0,0,.68.21.89.89,0,0,0,.71-.3,1.3,1.3,0,0,0,.25-.88V13.64h2.32V19a4.26,4.26,0,0,1-.2,1.37A2.67,2.67,0,0,1,29.71,22,3.58,3.58,0,0,1,28.41,22.18Z" class="cls-8"/><path data-cppathid="10007" d="M36.7,22.19A5.11,5.11,0,0,1,35.08,22a3,3,0,0,1-2-1.9,4.87,4.87,0,0,1-.27-1.71V13.64h2.38V18.3a1.88,1.88,0,0,0,.42,1.35,1.43,1.43,0,0,0,1.11.44,1.49,1.49,0,0,0,1.12-.42,1.78,1.78,0,0,0,.42-1.31V13.64h2.38v4.65a5.12,5.12,0,0,1-.28,1.76,3.16,3.16,0,0,1-.8,1.21,3.12,3.12,0,0,1-1.23.7A5.22,5.22,0,0,1,36.7,22.19Z" class="cls-8"/><path data-cppathid="10008" d="M42,13.64h3.24a6.25,6.25,0,0,1,2,.3,4.45,4.45,0,0,1,1.49.86,3.75,3.75,0,0,1,.92,1.31A4.37,4.37,0,0,1,50,17.79v0a4.28,4.28,0,0,1-.33,1.69,3.9,3.9,0,0,1-.93,1.34,4.39,4.39,0,0,1-1.51.88,6,6,0,0,1-2,.32H42ZM45.3,20A2.45,2.45,0,0,0,47,19.42a2,2,0,0,0,.64-1.57v0A1.94,1.94,0,0,0,47,16.26a2.45,2.45,0,0,0-1.68-.56h-.95V20Z" class="cls-8"/><path data-cppathid="10009" d="M55.48,22.2a5.15,5.15,0,0,1-1.82-.31,4.44,4.44,0,0,1-1.44-.9,4,4,0,0,1-1-1.37,4.22,4.22,0,0,1-.35-1.76v0a4.25,4.25,0,0,1,.34-1.71,4.37,4.37,0,0,1,.94-1.4,4.32,4.32,0,0,1,1.43-.93,4.8,4.8,0,0,1,1.8-.33,5.3,5.3,0,0,1,1.93.32,5.49,5.49,0,0,1,1.48.9l-1.37,1.65a3.37,3.37,0,0,0-.93-.59,2.67,2.67,0,0,0-1.1-.21,2,2,0,0,0-.84.18,2.1,2.1,0,0,0-.68.5,2.27,2.27,0,0,0-.46.73,2.44,2.44,0,0,0-.16.9v0a2.61,2.61,0,0,0,.16.94,2.2,2.2,0,0,0,.48.74,2.27,2.27,0,0,0,.72.48,2.51,2.51,0,0,0,.92.17,2.42,2.42,0,0,0,1.35-.35v-1H55.26v-1.7h3.87v3.78a6.25,6.25,0,0,1-1.58.92A5.42,5.42,0,0,1,55.48,22.2Z" class="cls-8"/><path data-cppathid="10010" d="M60.43,13.64h6.74v2H62.72v1.27h4v1.83h-4v1.34h4.51v2h-6.8Z" class="cls-8"/><path data-cppathid="10011" d="M71.4,20.28l3.15-2.4a4,4,0,0,0,.83-.79,1.15,1.15,0,0,0,.25-.72.79.79,0,0,0-.26-.62,1,1,0,0,0-.68-.23,1.44,1.44,0,0,0-.8.26,4.8,4.8,0,0,0-.87.82l-1.57-1.31a7.51,7.51,0,0,1,.69-.77,3.66,3.66,0,0,1,.75-.56,3.44,3.44,0,0,1,.88-.35,4.69,4.69,0,0,1,1.1-.12,3.87,3.87,0,0,1,1.26.2,2.79,2.79,0,0,1,1,.55,2.3,2.3,0,0,1,.64.84A2.63,2.63,0,0,1,78,16.17v0a2.75,2.75,0,0,1-.13.9,2.57,2.57,0,0,1-.37.74,3.78,3.78,0,0,1-.62.65,8.92,8.92,0,0,1-.83.65l-1.43,1h3.46V22H71.4Z" class="cls-8"/></g></g></g></svg>