<?xml version="1.0" encoding="UTF-8"?>
<svg xmlns="http://www.w3.org/2000/svg" onmouseup="{ if(window.parent.document.onmouseup) window.parent.document.onmouseup(arguments[0]);}" viewBox="0 0 154.81 71.05"><defs><style>.cls-1{fill:#fff;}.cls-2{fill:#f0f;}</style></defs><g data-name="Layer 2" id="Layer_2"><g data-name="Layer 3" id="Layer_3"><path data-cppathid="10000" d="M62.8,3.26H59.4L60.27,0H70.92l-.87,3.26h-3.4l-2.22,8.28H60.57Z" class="cls-1"/><path data-cppathid="10001" d="M71.76,0h3.86L74.51,4.07H78L79.14,0H83L79.9,11.54H76L77.15,7.4H73.62l-1.1,4.14H68.66Z" class="cls-1"/><path data-cppathid="10002" d="M84.25,0h9.84l-.86,3.16h-6l-.31,1.17h5.64l-.75,2.79H86.13l-.35,1.25h6.13l-.84,3.17H81.15Z" class="cls-1"/><path data-cppathid="10003" d="M5.21,25.85H0l1.34-5H17.66l-1.34,5h-5.2L7.71,38.54H1.79Z" class="cls-1"/><path data-cppathid="10004" d="M23,20.72h5.86l2.68,17.82H25.27L25,36.16H18.77l-1.54,2.38H10.79ZM24.64,32l-.48-4.3L21.4,32Z" class="cls-1"/><path data-cppathid="10005" d="M36.74,20.85h5.91l-1.72,6.34,5.89-6.34H54L46,28.93l3.69,9.61H43.36l-2.12-5.69-2.48,2.48-.86,3.21H32Z" class="cls-1"/><path data-cppathid="10006" d="M54.88,20.85H70L68.65,25.7H59.38l-.48,1.79h8.64L66.4,31.76H57.76l-.53,1.92h9.4l-1.29,4.86H50.13Z" class="cls-1"/><path data-cppathid="10007" d="M71.88,20.85h6.27c3.44,0,5.58.93,6.92,2.27A6.94,6.94,0,0,1,87,28.3a9.73,9.73,0,0,1-2.9,7c-2.12,2.12-5.18,3.26-9.28,3.26H67.13Zm3.59,12.53a6,6,0,0,0,4.25-1.44,4.52,4.52,0,0,0,1.26-3,2.71,2.71,0,0,0-.73-2A3.84,3.84,0,0,0,77.39,26h-1l-2,7.38Z" class="cls-1"/><path data-cppathid="10008" d="M87.83,30.88A10.44,10.44,0,0,1,98.24,20.49c5.2,0,8.79,3.49,8.79,8A10.44,10.44,0,0,1,96.62,38.89C91.41,38.89,87.83,35.4,87.83,30.88ZM101.09,29a3.1,3.1,0,0,0-3.26-3.33c-2.47,0-4.07,2.42-4.07,4.65A3.09,3.09,0,0,0,97,33.68C99.5,33.68,101.09,31.26,101.09,29Z" class="cls-1"/><path data-cppathid="10009" d="M108.22,20.85h6.06l.23,8.49,5.13-8.54h5.1l.58,8.54,4.78-8.49h6.21L125.75,38.66H120.6l-.76-8.79-5.46,8.79h-5.15Z" class="cls-1"/><path data-cppathid="10010" d="M137.12,20.85h5.53l4,8.44L149,20.85h5.86l-4.75,17.69H144.8l-4.19-8.8-2.38,8.8h-5.86Z" class="cls-1"/><path data-cppathid="10011" d="M24.56,60.44c0-7.79,6.12-14.21,15.71-14.21,4.48,0,8.32,1.94,10,3.94l-5,5.1a8.31,8.31,0,0,0-5.5-2.14c-4.53,0-7.21,3.09-7.21,6.93,0,3,2.14,4.42,4.62,4.42a5.16,5.16,0,0,0,2.08-.37L40,61.56H36.12l1.29-5.1H48.87L45.47,68.6a18.66,18.66,0,0,1-9.15,2.45C30.41,71.05,24.56,67.92,24.56,60.44Z" class="cls-2"/><path data-cppathid="10012" d="M62.09,46.57H70l3.6,24H65.12l-.41-3.2H56.38l-2.07,3.2H45.64ZM64.27,61.7l-.65-5.78-3.7,5.78Z" class="cls-2"/><path data-cppathid="10013" d="M80.56,46.74h7.85l2.86,8.36,7.34-8.36h8.74L101,70.54H93l3.16-11.8L88.44,67.2h-.13l-3.2-8.46L82,70.54H74.17Z" class="cls-2"/><path data-cppathid="10014" d="M109.93,46.74h20.3l-1.77,6.53H116l-.64,2.41H127l-1.53,5.74H113.81L113.09,64h12.65L124,70.54H103.54Z" class="cls-2"/></g></g></svg>