<?xml version="1.0" encoding="UTF-8"?>
<svg xmlns="http://www.w3.org/2000/svg" onmouseup="{ if(window.parent.document.onmouseup) window.parent.document.onmouseup(arguments[0]);}" viewBox="0 0 49.66 45.07"><defs><style>.cls-1{fill:#fff;fill-rule:evenodd;}</style></defs><g data-name="Layer 2" id="Layer_2"><g data-name="Layer 2" id="Layer_2-2"><path data-cppathid="10000" d="M2.24,26.73h9a2.25,2.25,0,0,0,2.24-2.24V2.27A2.25,2.25,0,0,0,11.28,0h-9A2.25,2.25,0,0,0,0,2.27V24.49a2.25,2.25,0,0,0,2.24,2.24Z" class="cls-1"/><path data-cppathid="10001" d="M16.3,25.07c.12-15.34,0-23,0-23C16.18.91,16.65,0,18,0L39.6.25c4,0,4.78,3.67,2.71,6.64q5.49,2.34,2.19,7,5.72,1.82,1.73,6.55c5.22,2.39,4.18,7.26-1,7.28l-12,0c-.65.28-.31,2.21,1,5.81q2.22,7.29-1,10.09c-2.08,1.8-3.47,1.59-4.27,1.07-1.35-.9-1.24-3.63-1.66-5.5-.38-1.69-3.8-6.69-5.47-8.8-2.44-3.11-5.51-2.7-5.49-5.33Z" class="cls-1"/></g></g></svg>