<?xml version="1.0" encoding="UTF-8"?>
<svg xmlns="http://www.w3.org/2000/svg" onmouseup="{ if(window.parent.document.onmouseup) window.parent.document.onmouseup(arguments[0]);}" viewBox="0 0 49.66 45.07"><defs><style>.cls-1{fill:#fff;fill-rule:evenodd;}</style></defs><g data-name="Layer 2" id="Layer_2"><g data-name="Layer 2" id="Layer_2-2"><path data-cppathid="10000" d="M2.24,18.34h9a2.25,2.25,0,0,1,2.24,2.24V42.8A2.25,2.25,0,0,1,11.28,45h-9A2.25,2.25,0,0,1,0,42.8V20.58a2.25,2.25,0,0,1,2.24-2.24Z" class="cls-1"/><path data-cppathid="10001" d="M16.3,20c.12,15.33,0,23,0,23-.08,1.16.39,2.08,1.72,2.07l21.62-.25c4,0,4.78-3.67,2.71-6.64q5.49-2.34,2.19-7,5.72-1.82,1.73-6.55c5.22-2.4,4.18-7.27-1-7.28l-12,0q-1-.42,1-5.81,2.22-7.29-1-10.09C31.11-.36,29.72-.16,28.92.37c-1.35.9-1.24,3.63-1.66,5.5-.38,1.69-3.8,6.69-5.47,8.8-2.44,3.1-5.51,2.7-5.49,5.33Z" class="cls-1"/></g></g></svg>